<?xml version="1.0" encoding="UTF-8"?>
<svg width="24px" height="24px" viewBox="0 0 24 24" version="1.1" xmlns="http://www.w3.org/2000/svg">
    <g stroke="none" stroke-width="1" fill="none" fill-rule="evenodd">
        <path d="M20,3 L4,3 C2.9,3 2,3.9 2,5 L2,19 C2,20.1 2.9,21 4,21 L20,21 C21.1,21 22,20.1 22,19 L22,5 C22,3.9 21.1,3 20,3 Z M9,17 L4,17 L4,15 L9,15 L9,17 Z M9,13 L4,13 L4,11 L9,11 L9,13 Z M9,9 L4,9 L4,7 L9,7 L9,9 Z M15.7,16.7 L14.3,15.3 L12,17.6 L10.7,16.3 L9.3,17.7 L12,20.4 L15.7,16.7 Z M15.7,13.7 L14.3,12.3 L12,14.6 L10.7,13.3 L9.3,14.7 L12,17.4 L15.7,13.7 Z M15.7,10.7 L14.3,9.3 L12,11.6 L10.7,10.3 L9.3,11.7 L12,14.4 L15.7,10.7 Z" fill="#2563eb"/>
    </g>
</svg> 